  0
SECTION
  2
HEADER
  9
$ACADVER
  1
AC1009
  9
$EXTMIN
 10
0.0
 20
0.0
 30
0.0
  9
$EXTMAX
 10
1000.0
 20
1000.0
 30
0.0
  9
$FILLMODE
 70
 0
  9
$SPLFRAME
 70
 1
  0
ENDSEC
  0
SECTION
  2
TABLES
  0
TABLE
  2
LAYER
 70
1
  0
LAYER
  2
0
 70
     0
 62
     7
  6
CONTINUOUS
  0
ENDTAB
  0
ENDSEC
  0
SECTION
  2
ENTITIES
  0
LINE
  8
0
 62
     0
 10
76.2953
 20
97.342
 30
0.0
 11
76.4522
 21
97.3363
 31
0.0
  0
LINE
  8
0
 62
     0
 10
76.4522
 20
97.3363
 30
0.0
 11
76.6078
 21
97.3183
 31
0.0
  0
LINE
  8
0
 62
     0
 10
76.6078
 20
97.3183
 30
0.0
 11
76.7623
 21
97.2866
 31
0.0
  0
LINE
  8
0
 62
     0
 10
76.7623
 20
97.2866
 30
0.0
 11
76.9137
 21
97.2453
 31
0.0
  0
LINE
  8
0
 62
     0
 10
76.9137
 20
97.2453
 30
0.0
 11
77.0611
 21
97.1903
 31
0.0
  0
LINE
  8
0
 62
     0
 10
77.0611
 20
97.1903
 30
0.0
 11
77.2033
 21
97.1254
 31
0.0
  0
LINE
  8
0
 62
     0
 10
77.2033
 20
97.1254
 30
0.0
 11
77.3395
 21
97.0485
 31
0.0
  0
LINE
  8
0
 62
     0
 10
77.3395
 20
97.0485
 30
0.0
 11
77.4707
 21
96.9617
 31
0.0
  0
LINE
  8
0
 62
     0
 10
77.4707
 20
96.9617
 30
0.0
 11
77.5931
 21
96.8636
 31
0.0
  0
LINE
  8
0
 62
     0
 10
77.5931
 20
96.8636
 30
0.0
 11
77.7102
 21
96.7574
 31
0.0
  0
LINE
  8
0
 62
     0
 10
77.7102
 20
96.7574
 30
0.0
 11
77.815
 21
96.6417
 31
0.0
  0
LINE
  8
0
 62
     0
 10
77.815
 20
96.6417
 30
0.0
 11
77.9141
 21
96.5193
 31
0.0
  0
LINE
  8
0
 62
     0
 10
77.9141
 20
96.5193
 30
0.0
 11
78.0009
 21
96.387
 31
0.0
  0
LINE
  8
0
 62
     0
 10
78.0009
 20
96.387
 30
0.0
 11
78.0782
 21
96.2505
 31
0.0
  0
LINE
  8
0
 62
     0
 10
78.0782
 20
96.2505
 30
0.0
 11
78.1431
 21
96.1087
 31
0.0
  0
LINE
  8
0
 62
     0
 10
78.1431
 20
96.1087
 30
0.0
 11
78.1981
 21
95.9612
 31
0.0
  0
LINE
  8
0
 62
     0
 10
78.1981
 20
95.9612
 30
0.0
 11
78.2394
 21
95.8095
 31
0.0
  0
LINE
  8
0
 62
     0
 10
78.2394
 20
95.8095
 30
0.0
 11
78.2712
 21
95.655
 31
0.0
  0
LINE
  8
0
 62
     0
 10
78.2712
 20
95.655
 30
0.0
 11
78.2891
 21
95.4994
 31
0.0
  0
LINE
  8
0
 62
     0
 10
78.2891
 20
95.4994
 30
0.0
 11
78.2948
 21
95.3424
 31
0.0
  0
LINE
  8
0
 62
     0
 10
78.2948
 20
95.3424
 30
0.0
 11
78.2959
 21
2.09186
 31
0.0
  0
LINE
  8
0
 62
     0
 10
78.2959
 20
2.09186
 30
0.0
 11
78.2891
 21
1.93477
 31
0.0
  0
LINE
  8
0
 62
     0
 10
78.2891
 20
1.93477
 30
0.0
 11
78.2712
 21
1.77905
 31
0.0
  0
LINE
  8
0
 62
     0
 10
78.2712
 20
1.77905
 30
0.0
 11
78.2394
 21
1.62471
 31
0.0
  0
LINE
  8
0
 62
     0
 10
78.2394
 20
1.62471
 30
0.0
 11
78.1981
 21
1.4745
 31
0.0
  0
LINE
  8
0
 62
     0
 10
78.1981
 20
1.4745
 30
0.0
 11
78.1431
 21
1.32567
 31
0.0
  0
LINE
  8
0
 62
     0
 10
78.1431
 20
1.32567
 30
0.0
 11
78.0782
 21
1.18374
 31
0.0
  0
LINE
  8
0
 62
     0
 10
78.0782
 20
1.18374
 30
0.0
 11
78.0009
 21
1.04869
 31
0.0
  0
LINE
  8
0
 62
     0
 10
78.0009
 20
1.04869
 30
0.0
 11
77.9141
 21
0.916397
 31
0.0
  0
LINE
  8
0
 62
     0
 10
77.9141
 20
0.916397
 30
0.0
 11
77.815
 21
0.79375
 31
0.0
  0
LINE
  8
0
 62
     0
 10
77.815
 20
0.79375
 30
0.0
 11
77.7102
 21
0.676617
 31
0.0
  0
LINE
  8
0
 62
     0
 10
77.7102
 20
0.676617
 30
0.0
 11
77.5931
 21
0.571885
 31
0.0
  0
LINE
  8
0
 62
     0
 10
77.5931
 20
0.571885
 30
0.0
 11
77.4707
 21
0.472666
 31
0.0
  0
LINE
  8
0
 62
     0
 10
77.4707
 20
0.472666
 30
0.0
 11
77.3395
 21
0.38723
 31
0.0
  0
LINE
  8
0
 62
     0
 10
77.3395
 20
0.38723
 30
0.0
 11
77.2033
 21
0.308681
 31
0.0
  0
LINE
  8
0
 62
     0
 10
77.2033
 20
0.308681
 30
0.0
 11
77.0611
 21
0.243913
 31
0.0
  0
LINE
  8
0
 62
     0
 10
77.0611
 20
0.243913
 30
0.0
 11
76.9137
 21
0.188791
 31
0.0
  0
LINE
  8
0
 62
     0
 10
76.9137
 20
0.188791
 30
0.0
 11
76.7623
 21
0.14745
 31
0.0
  0
LINE
  8
0
 62
     0
 10
76.7623
 20
0.14745
 30
0.0
 11
76.6078
 21
0.115755
 31
0.0
  0
LINE
  8
0
 62
     0
 10
76.6078
 20
0.115755
 30
0.0
 11
76.4522
 21
0.0978408
 31
0.0
  0
LINE
  8
0
 62
     0
 10
76.4522
 20
0.0978408
 30
0.0
 11
76.2953
 21
0.0923286
 31
0.0
  0
LINE
  8
0
 62
     0
 10
76.2953
 20
0.0923286
 30
0.0
 11
2.09462
 21
0.0909507
 31
0.0
  0
LINE
  8
0
 62
     0
 10
2.09462
 20
0.0909507
 30
0.0
 11
1.93752
 21
0.0978408
 31
0.0
  0
LINE
  8
0
 62
     0
 10
1.93752
 20
0.0978408
 30
0.0
 11
1.7818
 21
0.115755
 31
0.0
  0
LINE
  8
0
 62
     0
 10
1.7818
 20
0.115755
 30
0.0
 11
1.62746
 21
0.14745
 31
0.0
  0
LINE
  8
0
 62
     0
 10
1.62746
 20
0.14745
 30
0.0
 11
1.47588
 21
0.188791
 31
0.0
  0
LINE
  8
0
 62
     0
 10
1.47588
 20
0.188791
 30
0.0
 11
1.32843
 21
0.243913
 31
0.0
  0
LINE
  8
0
 62
     0
 10
1.32843
 20
0.243913
 30
0.0
 11
1.18649
 21
0.308681
 31
0.0
  0
LINE
  8
0
 62
     0
 10
1.18649
 20
0.308681
 30
0.0
 11
1.05006
 21
0.38723
 31
0.0
  0
LINE
  8
0
 62
     0
 10
1.05006
 20
0.38723
 30
0.0
 11
0.919152
 21
0.472666
 31
0.0
  0
LINE
  8
0
 62
     0
 10
0.919152
 20
0.472666
 30
0.0
 11
0.795129
 21
0.571885
 31
0.0
  0
LINE
  8
0
 62
     0
 10
0.795129
 20
0.571885
 30
0.0
 11
0.679372
 21
0.676617
 31
0.0
  0
LINE
  8
0
 62
     0
 10
0.679372
 20
0.676617
 30
0.0
 11
0.573264
 21
0.79375
 31
0.0
  0
LINE
  8
0
 62
     0
 10
0.573264
 20
0.79375
 30
0.0
 11
0.475424
 21
0.916397
 31
0.0
  0
LINE
  8
0
 62
     0
 10
0.475424
 20
0.916397
 30
0.0
 11
0.388606
 21
1.04869
 31
0.0
  0
LINE
  8
0
 62
     0
 10
0.388606
 20
1.04869
 30
0.0
 11
0.311437
 21
1.18374
 31
0.0
  0
LINE
  8
0
 62
     0
 10
0.311437
 20
1.18374
 30
0.0
 11
0.246669
 21
1.32567
 31
0.0
  0
LINE
  8
0
 62
     0
 10
0.246669
 20
1.32567
 30
0.0
 11
0.191547
 21
1.4745
 31
0.0
  0
LINE
  8
0
 62
     0
 10
0.191547
 20
1.4745
 30
0.0
 11
0.150206
 21
1.62471
 31
0.0
  0
LINE
  8
0
 62
     0
 10
0.150206
 20
1.62471
 30
0.0
 11
0.118511
 21
1.77905
 31
0.0
  0
LINE
  8
0
 62
     0
 10
0.118511
 20
1.77905
 30
0.0
 11
0.100597
 21
1.93477
 31
0.0
  0
LINE
  8
0
 62
     0
 10
0.100597
 20
1.93477
 30
0.0
 11
0.0937066
 21
2.09186
 31
0.0
  0
LINE
  8
0
 62
     0
 10
0.0937066
 20
2.09186
 30
0.0
 11
0.0950846
 21
95.3424
 31
0.0
  0
LINE
  8
0
 62
     0
 10
0.0950846
 20
95.3424
 30
0.0
 11
0.100597
 21
95.4994
 31
0.0
  0
LINE
  8
0
 62
     0
 10
0.100597
 20
95.4994
 30
0.0
 11
0.118511
 21
95.655
 31
0.0
  0
LINE
  8
0
 62
     0
 10
0.118511
 20
95.655
 30
0.0
 11
0.150206
 21
95.8095
 31
0.0
  0
LINE
  8
0
 62
     0
 10
0.150206
 20
95.8095
 30
0.0
 11
0.191547
 21
95.9612
 31
0.0
  0
LINE
  8
0
 62
     0
 10
0.191547
 20
95.9612
 30
0.0
 11
0.246669
 21
96.1087
 31
0.0
  0
LINE
  8
0
 62
     0
 10
0.246669
 20
96.1087
 30
0.0
 11
0.311437
 21
96.2505
 31
0.0
  0
LINE
  8
0
 62
     0
 10
0.311437
 20
96.2505
 30
0.0
 11
0.388606
 21
96.387
 31
0.0
  0
LINE
  8
0
 62
     0
 10
0.388606
 20
96.387
 30
0.0
 11
0.475424
 21
96.5193
 31
0.0
  0
LINE
  8
0
 62
     0
 10
0.475424
 20
96.5193
 30
0.0
 11
0.573264
 21
96.6417
 31
0.0
  0
LINE
  8
0
 62
     0
 10
0.573264
 20
96.6417
 30
0.0
 11
0.679372
 21
96.7574
 31
0.0
  0
LINE
  8
0
 62
     0
 10
0.679372
 20
96.7574
 30
0.0
 11
0.795129
 21
96.8636
 31
0.0
  0
LINE
  8
0
 62
     0
 10
0.795129
 20
96.8636
 30
0.0
 11
0.919152
 21
96.9617
 31
0.0
  0
LINE
  8
0
 62
     0
 10
0.919152
 20
96.9617
 30
0.0
 11
1.05006
 21
97.0485
 31
0.0
  0
LINE
  8
0
 62
     0
 10
1.05006
 20
97.0485
 30
0.0
 11
1.18649
 21
97.1254
 31
0.0
  0
LINE
  8
0
 62
     0
 10
1.18649
 20
97.1254
 30
0.0
 11
1.32843
 21
97.1903
 31
0.0
  0
LINE
  8
0
 62
     0
 10
1.32843
 20
97.1903
 30
0.0
 11
1.47588
 21
97.2453
 31
0.0
  0
LINE
  8
0
 62
     0
 10
1.47588
 20
97.2453
 30
0.0
 11
1.62746
 21
97.2866
 31
0.0
  0
LINE
  8
0
 62
     0
 10
1.62746
 20
97.2866
 30
0.0
 11
1.7818
 21
97.3183
 31
0.0
  0
LINE
  8
0
 62
     0
 10
1.7818
 20
97.3183
 30
0.0
 11
1.93752
 21
97.3363
 31
0.0
  0
LINE
  8
0
 62
     0
 10
1.93752
 20
97.3363
 30
0.0
 11
2.09462
 21
97.3434
 31
0.0
  0
LINE
  8
0
 62
     0
 10
2.09462
 20
97.3434
 30
0.0
 11
76.2953
 21
97.342
 31
0.0
  0
LINE
  8
0
 62
     0
 10
13.1451
 20
17.6168
 30
0.0
 11
13.1451
 21
16.6178
 31
0.0
  0
LINE
  8
0
 62
     0
 10
13.1451
 20
16.6178
 30
0.0
 11
12.3445
 21
16.6178
 31
0.0
  0
LINE
  8
0
 62
     0
 10
12.3445
 20
16.6178
 30
0.0
 11
12.3445
 21
13.5172
 31
0.0
  0
LINE
  8
0
 62
     0
 10
12.3445
 20
13.5172
 30
0.0
 11
13.1451
 21
13.5172
 31
0.0
  0
LINE
  8
0
 62
     0
 10
13.1451
 20
13.5172
 30
0.0
 11
13.1451
 21
12.9177
 31
0.0
  0
LINE
  8
0
 62
     0
 10
13.1451
 20
12.9177
 30
0.0
 11
11.6196
 21
12.9177
 31
0.0
  0
LINE
  8
0
 62
     0
 10
11.6196
 20
12.9177
 30
0.0
 11
11.6196
 21
16.1478
 31
0.0
  0
LINE
  8
0
 62
     0
 10
11.6196
 20
16.1478
 30
0.0
 11
9.89432
 21
16.1478
 31
0.0
  0
LINE
  8
0
 62
     0
 10
9.89432
 20
16.1478
 30
0.0
 11
9.89432
 21
17.067
 31
0.0
  0
LINE
  8
0
 62
     0
 10
9.89432
 20
17.067
 30
0.0
 11
6.59529
 21
17.067
 31
0.0
  0
LINE
  8
0
 62
     0
 10
6.59529
 20
17.067
 30
0.0
 11
6.59529
 21
16.1478
 31
0.0
  0
LINE
  8
0
 62
     0
 10
6.59529
 20
16.1478
 30
0.0
 11
4.86999
 21
16.1478
 31
0.0
  0
LINE
  8
0
 62
     0
 10
4.86999
 20
16.1478
 30
0.0
 11
4.86999
 21
12.9177
 31
0.0
  0
LINE
  8
0
 62
     0
 10
4.86999
 20
12.9177
 30
0.0
 11
4.04453
 21
12.9177
 31
0.0
  0
LINE
  8
0
 62
     0
 10
4.04453
 20
12.9177
 30
0.0
 11
4.04453
 21
10.1176
 31
0.0
  0
LINE
  8
0
 62
     0
 10
4.04453
 20
10.1176
 30
0.0
 11
4.86999
 21
10.1176
 31
0.0
  0
LINE
  8
0
 62
     0
 10
4.86999
 20
10.1176
 30
0.0
 11
4.86999
 21
3.8475
 31
0.0
  0
LINE
  8
0
 62
     0
 10
4.86999
 20
3.8475
 30
0.0
 11
6.59529
 21
3.8475
 31
0.0
  0
LINE
  8
0
 62
     0
 10
6.59529
 20
3.8475
 30
0.0
 11
6.59529
 21
2.8677
 31
0.0
  0
LINE
  8
0
 62
     0
 10
6.59529
 20
2.8677
 30
0.0
 11
9.89432
 21
2.8677
 31
0.0
  0
LINE
  8
0
 62
     0
 10
9.89432
 20
2.8677
 30
0.0
 11
9.89432
 21
3.8475
 31
0.0
  0
LINE
  8
0
 62
     0
 10
9.89432
 20
3.8475
 30
0.0
 11
11.6196
 21
3.8475
 31
0.0
  0
LINE
  8
0
 62
     0
 10
11.6196
 20
3.8475
 30
0.0
 11
11.6196
 21
8.31783
 31
0.0
  0
LINE
  8
0
 62
     0
 10
11.6196
 20
8.31783
 30
0.0
 11
13.1451
 21
8.31783
 31
0.0
  0
LINE
  8
0
 62
     0
 10
13.1451
 20
8.31783
 30
0.0
 11
13.1451
 21
7.71701
 31
0.0
  0
LINE
  8
0
 62
     0
 10
13.1451
 20
7.71701
 30
0.0
 11
12.3445
 21
7.71701
 31
0.0
  0
LINE
  8
0
 62
     0
 10
12.3445
 20
7.71701
 30
0.0
 11
12.3445
 21
4.61779
 31
0.0
  0
LINE
  8
0
 62
     0
 10
12.3445
 20
4.61779
 30
0.0
 11
13.1451
 21
4.61779
 31
0.0
  0
LINE
  8
0
 62
     0
 10
13.1451
 20
4.61779
 30
0.0
 11
13.1451
 21
3.61735
 31
0.0
  0
LINE
  8
0
 62
     0
 10
13.1451
 20
3.61735
 30
0.0
 11
27.1432
 21
3.61735
 31
0.0
  0
LINE
  8
0
 62
     0
 10
27.1432
 20
3.61735
 30
0.0
 11
27.1432
 21
4.61779
 31
0.0
  0
LINE
  8
0
 62
     0
 10
27.1432
 20
4.61779
 30
0.0
 11
27.9452
 21
4.61779
 31
0.0
  0
LINE
  8
0
 62
     0
 10
27.9452
 20
4.61779
 30
0.0
 11
27.9452
 21
7.71701
 31
0.0
  0
LINE
  8
0
 62
     0
 10
27.9452
 20
7.71701
 30
0.0
 11
27.1432
 21
7.71701
 31
0.0
  0
LINE
  8
0
 62
     0
 10
27.1432
 20
7.71701
 30
0.0
 11
27.1432
 21
8.31783
 31
0.0
  0
LINE
  8
0
 62
     0
 10
27.1432
 20
8.31783
 30
0.0
 11
28.6701
 21
8.31783
 31
0.0
  0
LINE
  8
0
 62
     0
 10
28.6701
 20
8.31783
 30
0.0
 11
28.6701
 21
3.8475
 31
0.0
  0
LINE
  8
0
 62
     0
 10
28.6701
 20
3.8475
 30
0.0
 11
30.3954
 21
3.8475
 31
0.0
  0
LINE
  8
0
 62
     0
 10
30.3954
 20
3.8475
 30
0.0
 11
30.3954
 21
2.8677
 31
0.0
  0
LINE
  8
0
 62
     0
 10
30.3954
 20
2.8677
 30
0.0
 11
33.6944
 21
2.8677
 31
0.0
  0
LINE
  8
0
 62
     0
 10
33.6944
 20
2.8677
 30
0.0
 11
33.6944
 21
3.8475
 31
0.0
  0
LINE
  8
0
 62
     0
 10
33.6944
 20
3.8475
 30
0.0
 11
35.4196
 21
3.8475
 31
0.0
  0
LINE
  8
0
 62
     0
 10
35.4196
 20
3.8475
 30
0.0
 11
35.4196
 21
10.1176
 31
0.0
  0
LINE
  8
0
 62
     0
 10
35.4196
 20
10.1176
 30
0.0
 11
36.2451
 21
10.1176
 31
0.0
  0
LINE
  8
0
 62
     0
 10
36.2451
 20
10.1176
 30
0.0
 11
36.2451
 21
12.9177
 31
0.0
  0
LINE
  8
0
 62
     0
 10
36.2451
 20
12.9177
 30
0.0
 11
35.4196
 21
12.9177
 31
0.0
  0
LINE
  8
0
 62
     0
 10
35.4196
 20
12.9177
 30
0.0
 11
35.4196
 21
16.1478
 31
0.0
  0
LINE
  8
0
 62
     0
 10
35.4196
 20
16.1478
 30
0.0
 11
33.6944
 21
16.1478
 31
0.0
  0
LINE
  8
0
 62
     0
 10
33.6944
 20
16.1478
 30
0.0
 11
33.6944
 21
17.067
 31
0.0
  0
LINE
  8
0
 62
     0
 10
33.6944
 20
17.067
 30
0.0
 11
30.3954
 21
17.067
 31
0.0
  0
LINE
  8
0
 62
     0
 10
30.3954
 20
17.067
 30
0.0
 11
30.3954
 21
16.1478
 31
0.0
  0
LINE
  8
0
 62
     0
 10
30.3954
 20
16.1478
 30
0.0
 11
28.6701
 21
16.1478
 31
0.0
  0
LINE
  8
0
 62
     0
 10
28.6701
 20
16.1478
 30
0.0
 11
28.6701
 21
12.9177
 31
0.0
  0
LINE
  8
0
 62
     0
 10
28.6701
 20
12.9177
 30
0.0
 11
27.1432
 21
12.9177
 31
0.0
  0
LINE
  8
0
 62
     0
 10
27.1432
 20
12.9177
 30
0.0
 11
27.1432
 21
13.5172
 31
0.0
  0
LINE
  8
0
 62
     0
 10
27.1432
 20
13.5172
 30
0.0
 11
27.9452
 21
13.5172
 31
0.0
  0
LINE
  8
0
 62
     0
 10
27.9452
 20
13.5172
 30
0.0
 11
27.9452
 21
16.6178
 31
0.0
  0
LINE
  8
0
 62
     0
 10
27.9452
 20
16.6178
 30
0.0
 11
27.1432
 21
16.6178
 31
0.0
  0
LINE
  8
0
 62
     0
 10
27.1432
 20
16.6178
 30
0.0
 11
27.1432
 21
17.6168
 31
0.0
  0
LINE
  8
0
 62
     0
 10
27.1432
 20
17.6168
 30
0.0
 11
13.1451
 21
17.6168
 31
0.0
  0
LINE
  8
0
 62
     0
 10
41.7202
 20
17.6168
 30
0.0
 11
41.7202
 21
16.6178
 31
0.0
  0
LINE
  8
0
 62
     0
 10
41.7202
 20
16.6178
 30
0.0
 11
40.9194
 21
16.6178
 31
0.0
  0
LINE
  8
0
 62
     0
 10
40.9194
 20
16.6178
 30
0.0
 11
40.9194
 21
13.5172
 31
0.0
  0
LINE
  8
0
 62
     0
 10
40.9194
 20
13.5172
 30
0.0
 11
41.7202
 21
13.5172
 31
0.0
  0
LINE
  8
0
 62
     0
 10
41.7202
 20
13.5172
 30
0.0
 11
41.7202
 21
7.71701
 31
0.0
  0
LINE
  8
0
 62
     0
 10
41.7202
 20
7.71701
 30
0.0
 11
40.9194
 21
7.71701
 31
0.0
  0
LINE
  8
0
 62
     0
 10
40.9194
 20
7.71701
 30
0.0
 11
40.9194
 21
4.61779
 31
0.0
  0
LINE
  8
0
 62
     0
 10
40.9194
 20
4.61779
 30
0.0
 11
41.7202
 21
4.61779
 31
0.0
  0
LINE
  8
0
 62
     0
 10
41.7202
 20
4.61779
 30
0.0
 11
41.7202
 21
3.61735
 31
0.0
  0
LINE
  8
0
 62
     0
 10
41.7202
 20
3.61735
 30
0.0
 11
55.7195
 21
3.61735
 31
0.0
  0
LINE
  8
0
 62
     0
 10
55.7195
 20
3.61735
 30
0.0
 11
55.7195
 21
4.61779
 31
0.0
  0
LINE
  8
0
 62
     0
 10
55.7195
 20
4.61779
 30
0.0
 11
56.5203
 21
4.61779
 31
0.0
  0
LINE
  8
0
 62
     0
 10
56.5203
 20
4.61779
 30
0.0
 11
56.5203
 21
7.71701
 31
0.0
  0
LINE
  8
0
 62
     0
 10
56.5203
 20
7.71701
 30
0.0
 11
55.7195
 21
7.71701
 31
0.0
  0
LINE
  8
0
 62
     0
 10
55.7195
 20
7.71701
 30
0.0
 11
55.7195
 21
13.5172
 31
0.0
  0
LINE
  8
0
 62
     0
 10
55.7195
 20
13.5172
 30
0.0
 11
56.5203
 21
13.5172
 31
0.0
  0
LINE
  8
0
 62
     0
 10
56.5203
 20
13.5172
 30
0.0
 11
56.5203
 21
16.6178
 31
0.0
  0
LINE
  8
0
 62
     0
 10
56.5203
 20
16.6178
 30
0.0
 11
55.7195
 21
16.6178
 31
0.0
  0
LINE
  8
0
 62
     0
 10
55.7195
 20
16.6178
 30
0.0
 11
55.7195
 21
17.6168
 31
0.0
  0
LINE
  8
0
 62
     0
 10
55.7195
 20
17.6168
 30
0.0
 11
41.7202
 21
17.6168
 31
0.0
  0
LINE
  8
0
 62
     0
 10
67.2705
 20
36.2423
 30
0.0
 11
67.2705
 21
35.4171
 31
0.0
  0
LINE
  8
0
 62
     0
 10
67.2705
 20
35.4171
 30
0.0
 11
61.0002
 21
35.4171
 31
0.0
  0
LINE
  8
0
 62
     0
 10
61.0002
 20
35.4171
 30
0.0
 11
61.0002
 21
33.6917
 31
0.0
  0
LINE
  8
0
 62
     0
 10
61.0002
 20
33.6917
 30
0.0
 11
60.0191
 21
33.6917
 31
0.0
  0
LINE
  8
0
 62
     0
 10
60.0191
 20
33.6917
 30
0.0
 11
60.0191
 21
30.3926
 31
0.0
  0
LINE
  8
0
 62
     0
 10
60.0191
 20
30.3926
 30
0.0
 11
61.0002
 21
30.3926
 31
0.0
  0
LINE
  8
0
 62
     0
 10
61.0002
 20
30.3926
 30
0.0
 11
61.0002
 21
28.6673
 31
0.0
  0
LINE
  8
0
 62
     0
 10
61.0002
 20
28.6673
 30
0.0
 11
65.4692
 21
28.6673
 31
0.0
  0
LINE
  8
0
 62
     0
 10
65.4692
 20
28.6673
 30
0.0
 11
65.4692
 21
27.1418
 31
0.0
  0
LINE
  8
0
 62
     0
 10
65.4692
 20
27.1418
 30
0.0
 11
64.8684
 21
27.1418
 31
0.0
  0
LINE
  8
0
 62
     0
 10
64.8684
 20
27.1418
 30
0.0
 11
64.8684
 21
27.9425
 31
0.0
  0
LINE
  8
0
 62
     0
 10
64.8684
 20
27.9425
 30
0.0
 11
61.7693
 21
27.9425
 31
0.0
  0
LINE
  8
0
 62
     0
 10
61.7693
 20
27.9425
 30
0.0
 11
61.7693
 21
27.1418
 31
0.0
  0
LINE
  8
0
 62
     0
 10
61.7693
 20
27.1418
 30
0.0
 11
60.7702
 21
27.1418
 31
0.0
  0
LINE
  8
0
 62
     0
 10
60.7702
 20
27.1418
 30
0.0
 11
60.7702
 21
13.1423
 31
0.0
  0
LINE
  8
0
 62
     0
 10
60.7702
 20
13.1423
 30
0.0
 11
61.7693
 21
13.1423
 31
0.0
  0
LINE
  8
0
 62
     0
 10
61.7693
 20
13.1423
 30
0.0
 11
61.7693
 21
12.3417
 31
0.0
  0
LINE
  8
0
 62
     0
 10
61.7693
 20
12.3417
 30
0.0
 11
64.8684
 21
12.3417
 31
0.0
  0
LINE
  8
0
 62
     0
 10
64.8684
 20
12.3417
 30
0.0
 11
64.8684
 21
13.1423
 31
0.0
  0
LINE
  8
0
 62
     0
 10
64.8684
 20
13.1423
 30
0.0
 11
65.4692
 21
13.1423
 31
0.0
  0
LINE
  8
0
 62
     0
 10
65.4692
 20
13.1423
 30
0.0
 11
65.4692
 21
11.6169
 31
0.0
  0
LINE
  8
0
 62
     0
 10
65.4692
 20
11.6169
 30
0.0
 11
61.0002
 21
11.6169
 31
0.0
  0
LINE
  8
0
 62
     0
 10
61.0002
 20
11.6169
 30
0.0
 11
61.0002
 21
9.89157
 31
0.0
  0
LINE
  8
0
 62
     0
 10
61.0002
 20
9.89157
 30
0.0
 11
60.0191
 21
9.89157
 31
0.0
  0
LINE
  8
0
 62
     0
 10
60.0191
 20
9.89157
 30
0.0
 11
60.0191
 21
6.59253
 31
0.0
  0
LINE
  8
0
 62
     0
 10
60.0191
 20
6.59253
 30
0.0
 11
61.0002
 21
6.59253
 31
0.0
  0
LINE
  8
0
 62
     0
 10
61.0002
 20
6.59253
 30
0.0
 11
61.0002
 21
4.86724
 31
0.0
  0
LINE
  8
0
 62
     0
 10
61.0002
 20
4.86724
 30
0.0
 11
67.2705
 21
4.86724
 31
0.0
  0
LINE
  8
0
 62
     0
 10
67.2705
 20
4.86724
 30
0.0
 11
67.2705
 21
4.04177
 31
0.0
  0
LINE
  8
0
 62
     0
 10
67.2705
 20
4.04177
 30
0.0
 11
70.0691
 21
4.04177
 31
0.0
  0
LINE
  8
0
 62
     0
 10
70.0691
 20
4.04177
 30
0.0
 11
70.0691
 21
4.86724
 31
0.0
  0
LINE
  8
0
 62
     0
 10
70.0691
 20
4.86724
 30
0.0
 11
73.2991
 21
4.86724
 31
0.0
  0
LINE
  8
0
 62
     0
 10
73.2991
 20
4.86724
 30
0.0
 11
73.2991
 21
6.59253
 31
0.0
  0
LINE
  8
0
 62
     0
 10
73.2991
 20
6.59253
 30
0.0
 11
74.2199
 21
6.59253
 31
0.0
  0
LINE
  8
0
 62
     0
 10
74.2199
 20
6.59253
 30
0.0
 11
74.2199
 21
9.89157
 31
0.0
  0
LINE
  8
0
 62
     0
 10
74.2199
 20
9.89157
 30
0.0
 11
73.2991
 21
9.89157
 31
0.0
  0
LINE
  8
0
 62
     0
 10
73.2991
 20
9.89157
 30
0.0
 11
73.2991
 21
11.6169
 31
0.0
  0
LINE
  8
0
 62
     0
 10
73.2991
 20
11.6169
 30
0.0
 11
70.0691
 21
11.6169
 31
0.0
  0
LINE
  8
0
 62
     0
 10
70.0691
 20
11.6169
 30
0.0
 11
70.0691
 21
13.1423
 31
0.0
  0
LINE
  8
0
 62
     0
 10
70.0691
 20
13.1423
 30
0.0
 11
70.6699
 21
13.1423
 31
0.0
  0
LINE
  8
0
 62
     0
 10
70.6699
 20
13.1423
 30
0.0
 11
70.6699
 21
12.3417
 31
0.0
  0
LINE
  8
0
 62
     0
 10
70.6699
 20
12.3417
 30
0.0
 11
73.769
 21
12.3417
 31
0.0
  0
LINE
  8
0
 62
     0
 10
73.769
 20
12.3417
 30
0.0
 11
73.769
 21
13.1423
 31
0.0
  0
LINE
  8
0
 62
     0
 10
73.769
 20
13.1423
 30
0.0
 11
74.7695
 21
13.1423
 31
0.0
  0
LINE
  8
0
 62
     0
 10
74.7695
 20
13.1423
 30
0.0
 11
74.7695
 21
27.1418
 31
0.0
  0
LINE
  8
0
 62
     0
 10
74.7695
 20
27.1418
 30
0.0
 11
73.769
 21
27.1418
 31
0.0
  0
LINE
  8
0
 62
     0
 10
73.769
 20
27.1418
 30
0.0
 11
73.769
 21
27.9425
 31
0.0
  0
LINE
  8
0
 62
     0
 10
73.769
 20
27.9425
 30
0.0
 11
70.6699
 21
27.9425
 31
0.0
  0
LINE
  8
0
 62
     0
 10
70.6699
 20
27.9425
 30
0.0
 11
70.6699
 21
27.1418
 31
0.0
  0
LINE
  8
0
 62
     0
 10
70.6699
 20
27.1418
 30
0.0
 11
70.0691
 21
27.1418
 31
0.0
  0
LINE
  8
0
 62
     0
 10
70.0691
 20
27.1418
 30
0.0
 11
70.0691
 21
28.6673
 31
0.0
  0
LINE
  8
0
 62
     0
 10
70.0691
 20
28.6673
 30
0.0
 11
73.2991
 21
28.6673
 31
0.0
  0
LINE
  8
0
 62
     0
 10
73.2991
 20
28.6673
 30
0.0
 11
73.2991
 21
30.3926
 31
0.0
  0
LINE
  8
0
 62
     0
 10
73.2991
 20
30.3926
 30
0.0
 11
74.2199
 21
30.3926
 31
0.0
  0
LINE
  8
0
 62
     0
 10
74.2199
 20
30.3926
 30
0.0
 11
74.2199
 21
33.6917
 31
0.0
  0
LINE
  8
0
 62
     0
 10
74.2199
 20
33.6917
 30
0.0
 11
73.2991
 21
33.6917
 31
0.0
  0
LINE
  8
0
 62
     0
 10
73.2991
 20
33.6917
 30
0.0
 11
73.2991
 21
35.4171
 31
0.0
  0
LINE
  8
0
 62
     0
 10
73.2991
 20
35.4171
 30
0.0
 11
70.0691
 21
35.4171
 31
0.0
  0
LINE
  8
0
 62
     0
 10
70.0691
 20
35.4171
 30
0.0
 11
70.0691
 21
36.2423
 31
0.0
  0
LINE
  8
0
 62
     0
 10
70.0691
 20
36.2423
 30
0.0
 11
67.2705
 21
36.2423
 31
0.0
  0
LINE
  8
0
 62
     0
 10
3.6201
 20
36.667
 30
0.0
 11
3.6201
 21
35.6676
 31
0.0
  0
LINE
  8
0
 62
     0
 10
3.6201
 20
35.6676
 30
0.0
 11
2.81947
 21
35.6676
 31
0.0
  0
LINE
  8
0
 62
     0
 10
2.81947
 20
35.6676
 30
0.0
 11
2.81947
 21
32.5672
 31
0.0
  0
LINE
  8
0
 62
     0
 10
2.81947
 20
32.5672
 30
0.0
 11
3.6201
 21
32.5672
 31
0.0
  0
LINE
  8
0
 62
     0
 10
3.6201
 20
32.5672
 30
0.0
 11
3.6201
 21
26.767
 31
0.0
  0
LINE
  8
0
 62
     0
 10
3.6201
 20
26.767
 30
0.0
 11
2.81947
 21
26.767
 31
0.0
  0
LINE
  8
0
 62
     0
 10
2.81947
 20
26.767
 30
0.0
 11
2.81947
 21
23.6678
 31
0.0
  0
LINE
  8
0
 62
     0
 10
2.81947
 20
23.6678
 30
0.0
 11
3.6201
 21
23.6678
 31
0.0
  0
LINE
  8
0
 62
     0
 10
3.6201
 20
23.6678
 30
0.0
 11
3.6201
 21
22.6673
 31
0.0
  0
LINE
  8
0
 62
     0
 10
3.6201
 20
22.6673
 30
0.0
 11
17.6196
 21
22.6673
 31
0.0
  0
LINE
  8
0
 62
     0
 10
17.6196
 20
22.6673
 30
0.0
 11
17.6196
 21
23.6678
 31
0.0
  0
LINE
  8
0
 62
     0
 10
17.6196
 20
23.6678
 30
0.0
 11
18.4202
 21
23.6678
 31
0.0
  0
LINE
  8
0
 62
     0
 10
18.4202
 20
23.6678
 30
0.0
 11
18.4202
 21
26.767
 31
0.0
  0
LINE
  8
0
 62
     0
 10
18.4202
 20
26.767
 30
0.0
 11
17.6196
 21
26.767
 31
0.0
  0
LINE
  8
0
 62
     0
 10
17.6196
 20
26.767
 30
0.0
 11
17.6196
 21
32.5672
 31
0.0
  0
LINE
  8
0
 62
     0
 10
17.6196
 20
32.5672
 30
0.0
 11
18.4202
 21
32.5672
 31
0.0
  0
LINE
  8
0
 62
     0
 10
18.4202
 20
32.5672
 30
0.0
 11
18.4202
 21
35.6676
 31
0.0
  0
LINE
  8
0
 62
     0
 10
18.4202
 20
35.6676
 30
0.0
 11
17.6196
 21
35.6676
 31
0.0
  0
LINE
  8
0
 62
     0
 10
17.6196
 20
35.6676
 30
0.0
 11
17.6196
 21
36.667
 31
0.0
  0
LINE
  8
0
 62
     0
 10
17.6196
 20
36.667
 30
0.0
 11
3.6201
 21
36.667
 31
0.0
  0
LINE
  8
0
 62
     0
 10
22.6701
 20
36.667
 30
0.0
 11
22.6701
 21
35.6676
 31
0.0
  0
LINE
  8
0
 62
     0
 10
22.6701
 20
35.6676
 30
0.0
 11
21.8695
 21
35.6676
 31
0.0
  0
LINE
  8
0
 62
     0
 10
21.8695
 20
35.6676
 30
0.0
 11
21.8695
 21
32.5672
 31
0.0
  0
LINE
  8
0
 62
     0
 10
21.8695
 20
32.5672
 30
0.0
 11
22.6701
 21
32.5672
 31
0.0
  0
LINE
  8
0
 62
     0
 10
22.6701
 20
32.5672
 30
0.0
 11
22.6701
 21
26.767
 31
0.0
  0
LINE
  8
0
 62
     0
 10
22.6701
 20
26.767
 30
0.0
 11
21.8695
 21
26.767
 31
0.0
  0
LINE
  8
0
 62
     0
 10
21.8695
 20
26.767
 30
0.0
 11
21.8695
 21
23.6678
 31
0.0
  0
LINE
  8
0
 62
     0
 10
21.8695
 20
23.6678
 30
0.0
 11
22.6701
 21
23.6678
 31
0.0
  0
LINE
  8
0
 62
     0
 10
22.6701
 20
23.6678
 30
0.0
 11
22.6701
 21
22.6673
 31
0.0
  0
LINE
  8
0
 62
     0
 10
22.6701
 20
22.6673
 30
0.0
 11
36.6695
 21
22.6673
 31
0.0
  0
LINE
  8
0
 62
     0
 10
36.6695
 20
22.6673
 30
0.0
 11
36.6695
 21
23.6678
 31
0.0
  0
LINE
  8
0
 62
     0
 10
36.6695
 20
23.6678
 30
0.0
 11
37.4703
 21
23.6678
 31
0.0
  0
LINE
  8
0
 62
     0
 10
37.4703
 20
23.6678
 30
0.0
 11
37.4703
 21
26.767
 31
0.0
  0
LINE
  8
0
 62
     0
 10
37.4703
 20
26.767
 30
0.0
 11
36.6695
 21
26.767
 31
0.0
  0
LINE
  8
0
 62
     0
 10
36.6695
 20
26.767
 30
0.0
 11
36.6695
 21
32.5672
 31
0.0
  0
LINE
  8
0
 62
     0
 10
36.6695
 20
32.5672
 30
0.0
 11
37.4703
 21
32.5672
 31
0.0
  0
LINE
  8
0
 62
     0
 10
37.4703
 20
32.5672
 30
0.0
 11
37.4703
 21
35.6676
 31
0.0
  0
LINE
  8
0
 62
     0
 10
37.4703
 20
35.6676
 30
0.0
 11
36.6695
 21
35.6676
 31
0.0
  0
LINE
  8
0
 62
     0
 10
36.6695
 20
35.6676
 30
0.0
 11
36.6695
 21
36.667
 31
0.0
  0
LINE
  8
0
 62
     0
 10
36.6695
 20
36.667
 30
0.0
 11
22.6701
 21
36.667
 31
0.0
  0
LINE
  8
0
 62
     0
 10
41.7202
 20
36.667
 30
0.0
 11
41.7202
 21
35.6676
 31
0.0
  0
LINE
  8
0
 62
     0
 10
41.7202
 20
35.6676
 30
0.0
 11
40.9194
 21
35.6676
 31
0.0
  0
LINE
  8
0
 62
     0
 10
40.9194
 20
35.6676
 30
0.0
 11
40.9194
 21
32.5672
 31
0.0
  0
LINE
  8
0
 62
     0
 10
40.9194
 20
32.5672
 30
0.0
 11
41.7202
 21
32.5672
 31
0.0
  0
LINE
  8
0
 62
     0
 10
41.7202
 20
32.5672
 30
0.0
 11
41.7202
 21
26.767
 31
0.0
  0
LINE
  8
0
 62
     0
 10
41.7202
 20
26.767
 30
0.0
 11
40.9194
 21
26.767
 31
0.0
  0
LINE
  8
0
 62
     0
 10
40.9194
 20
26.767
 30
0.0
 11
40.9194
 21
23.6678
 31
0.0
  0
LINE
  8
0
 62
     0
 10
40.9194
 20
23.6678
 30
0.0
 11
41.7202
 21
23.6678
 31
0.0
  0
LINE
  8
0
 62
     0
 10
41.7202
 20
23.6678
 30
0.0
 11
41.7202
 21
22.6673
 31
0.0
  0
LINE
  8
0
 62
     0
 10
41.7202
 20
22.6673
 30
0.0
 11
55.7195
 21
22.6673
 31
0.0
  0
LINE
  8
0
 62
     0
 10
55.7195
 20
22.6673
 30
0.0
 11
55.7195
 21
23.6678
 31
0.0
  0
LINE
  8
0
 62
     0
 10
55.7195
 20
23.6678
 30
0.0
 11
56.5203
 21
23.6678
 31
0.0
  0
LINE
  8
0
 62
     0
 10
56.5203
 20
23.6678
 30
0.0
 11
56.5203
 21
26.767
 31
0.0
  0
LINE
  8
0
 62
     0
 10
56.5203
 20
26.767
 30
0.0
 11
55.7195
 21
26.767
 31
0.0
  0
LINE
  8
0
 62
     0
 10
55.7195
 20
26.767
 30
0.0
 11
55.7195
 21
32.5672
 31
0.0
  0
LINE
  8
0
 62
     0
 10
55.7195
 20
32.5672
 30
0.0
 11
56.5203
 21
32.5672
 31
0.0
  0
LINE
  8
0
 62
     0
 10
56.5203
 20
32.5672
 30
0.0
 11
56.5203
 21
35.6676
 31
0.0
  0
LINE
  8
0
 62
     0
 10
56.5203
 20
35.6676
 30
0.0
 11
55.7195
 21
35.6676
 31
0.0
  0
LINE
  8
0
 62
     0
 10
55.7195
 20
35.6676
 30
0.0
 11
55.7195
 21
36.667
 31
0.0
  0
LINE
  8
0
 62
     0
 10
55.7195
 20
36.667
 30
0.0
 11
41.7202
 21
36.667
 31
0.0
  0
LINE
  8
0
 62
     0
 10
3.6201
 20
55.717
 30
0.0
 11
3.6201
 21
54.7176
 31
0.0
  0
LINE
  8
0
 62
     0
 10
3.6201
 20
54.7176
 30
0.0
 11
2.81947
 21
54.7176
 31
0.0
  0
LINE
  8
0
 62
     0
 10
2.81947
 20
54.7176
 30
0.0
 11
2.81947
 21
51.617
 31
0.0
  0
LINE
  8
0
 62
     0
 10
2.81947
 20
51.617
 30
0.0
 11
3.6201
 21
51.617
 31
0.0
  0
LINE
  8
0
 62
     0
 10
3.6201
 20
51.617
 30
0.0
 11
3.6201
 21
45.817
 31
0.0
  0
LINE
  8
0
 62
     0
 10
3.6201
 20
45.817
 30
0.0
 11
2.81947
 21
45.817
 31
0.0
  0
LINE
  8
0
 62
     0
 10
2.81947
 20
45.817
 30
0.0
 11
2.81947
 21
42.7179
 31
0.0
  0
LINE
  8
0
 62
     0
 10
2.81947
 20
42.7179
 30
0.0
 11
3.6201
 21
42.7179
 31
0.0
  0
LINE
  8
0
 62
     0
 10
3.6201
 20
42.7179
 30
0.0
 11
3.6201
 21
41.7174
 31
0.0
  0
LINE
  8
0
 62
     0
 10
3.6201
 20
41.7174
 30
0.0
 11
17.6196
 21
41.7174
 31
0.0
  0
LINE
  8
0
 62
     0
 10
17.6196
 20
41.7174
 30
0.0
 11
17.6196
 21
42.7179
 31
0.0
  0
LINE
  8
0
 62
     0
 10
17.6196
 20
42.7179
 30
0.0
 11
18.4202
 21
42.7179
 31
0.0
  0
LINE
  8
0
 62
     0
 10
18.4202
 20
42.7179
 30
0.0
 11
18.4202
 21
45.817
 31
0.0
  0
LINE
  8
0
 62
     0
 10
18.4202
 20
45.817
 30
0.0
 11
17.6196
 21
45.817
 31
0.0
  0
LINE
  8
0
 62
     0
 10
17.6196
 20
45.817
 30
0.0
 11
17.6196
 21
51.617
 31
0.0
  0
LINE
  8
0
 62
     0
 10
17.6196
 20
51.617
 30
0.0
 11
18.4202
 21
51.617
 31
0.0
  0
LINE
  8
0
 62
     0
 10
18.4202
 20
51.617
 30
0.0
 11
18.4202
 21
54.7176
 31
0.0
  0
LINE
  8
0
 62
     0
 10
18.4202
 20
54.7176
 30
0.0
 11
17.6196
 21
54.7176
 31
0.0
  0
LINE
  8
0
 62
     0
 10
17.6196
 20
54.7176
 30
0.0
 11
17.6196
 21
55.717
 31
0.0
  0
LINE
  8
0
 62
     0
 10
17.6196
 20
55.717
 30
0.0
 11
3.6201
 21
55.717
 31
0.0
  0
LINE
  8
0
 62
     0
 10
22.6701
 20
55.717
 30
0.0
 11
22.6701
 21
54.7176
 31
0.0
  0
LINE
  8
0
 62
     0
 10
22.6701
 20
54.7176
 30
0.0
 11
21.8695
 21
54.7176
 31
0.0
  0
LINE
  8
0
 62
     0
 10
21.8695
 20
54.7176
 30
0.0
 11
21.8695
 21
51.617
 31
0.0
  0
LINE
  8
0
 62
     0
 10
21.8695
 20
51.617
 30
0.0
 11
22.6701
 21
51.617
 31
0.0
  0
LINE
  8
0
 62
     0
 10
22.6701
 20
51.617
 30
0.0
 11
22.6701
 21
45.817
 31
0.0
  0
LINE
  8
0
 62
     0
 10
22.6701
 20
45.817
 30
0.0
 11
21.8695
 21
45.817
 31
0.0
  0
LINE
  8
0
 62
     0
 10
21.8695
 20
45.817
 30
0.0
 11
21.8695
 21
42.7179
 31
0.0
  0
LINE
  8
0
 62
     0
 10
21.8695
 20
42.7179
 30
0.0
 11
22.6701
 21
42.7179
 31
0.0
  0
LINE
  8
0
 62
     0
 10
22.6701
 20
42.7179
 30
0.0
 11
22.6701
 21
41.7174
 31
0.0
  0
LINE
  8
0
 62
     0
 10
22.6701
 20
41.7174
 30
0.0
 11
36.6695
 21
41.7174
 31
0.0
  0
LINE
  8
0
 62
     0
 10
36.6695
 20
41.7174
 30
0.0
 11
36.6695
 21
42.7179
 31
0.0
  0
LINE
  8
0
 62
     0
 10
36.6695
 20
42.7179
 30
0.0
 11
37.4703
 21
42.7179
 31
0.0
  0
LINE
  8
0
 62
     0
 10
37.4703
 20
42.7179
 30
0.0
 11
37.4703
 21
45.817
 31
0.0
  0
LINE
  8
0
 62
     0
 10
37.4703
 20
45.817
 30
0.0
 11
36.6695
 21
45.817
 31
0.0
  0
LINE
  8
0
 62
     0
 10
36.6695
 20
45.817
 30
0.0
 11
36.6695
 21
51.617
 31
0.0
  0
LINE
  8
0
 62
     0
 10
36.6695
 20
51.617
 30
0.0
 11
37.4703
 21
51.617
 31
0.0
  0
LINE
  8
0
 62
     0
 10
37.4703
 20
51.617
 30
0.0
 11
37.4703
 21
54.7176
 31
0.0
  0
LINE
  8
0
 62
     0
 10
37.4703
 20
54.7176
 30
0.0
 11
36.6695
 21
54.7176
 31
0.0
  0
LINE
  8
0
 62
     0
 10
36.6695
 20
54.7176
 30
0.0
 11
36.6695
 21
55.717
 31
0.0
  0
LINE
  8
0
 62
     0
 10
36.6695
 20
55.717
 30
0.0
 11
22.6701
 21
55.717
 31
0.0
  0
LINE
  8
0
 62
     0
 10
41.7202
 20
55.717
 30
0.0
 11
41.7202
 21
54.7176
 31
0.0
  0
LINE
  8
0
 62
     0
 10
41.7202
 20
54.7176
 30
0.0
 11
40.9194
 21
54.7176
 31
0.0
  0
LINE
  8
0
 62
     0
 10
40.9194
 20
54.7176
 30
0.0
 11
40.9194
 21
51.617
 31
0.0
  0
LINE
  8
0
 62
     0
 10
40.9194
 20
51.617
 30
0.0
 11
41.7202
 21
51.617
 31
0.0
  0
LINE
  8
0
 62
     0
 10
41.7202
 20
51.617
 30
0.0
 11
41.7202
 21
45.817
 31
0.0
  0
LINE
  8
0
 62
     0
 10
41.7202
 20
45.817
 30
0.0
 11
40.9194
 21
45.817
 31
0.0
  0
LINE
  8
0
 62
     0
 10
40.9194
 20
45.817
 30
0.0
 11
40.9194
 21
42.7179
 31
0.0
  0
LINE
  8
0
 62
     0
 10
40.9194
 20
42.7179
 30
0.0
 11
41.7202
 21
42.7179
 31
0.0
  0
LINE
  8
0
 62
     0
 10
41.7202
 20
42.7179
 30
0.0
 11
41.7202
 21
41.7174
 31
0.0
  0
LINE
  8
0
 62
     0
 10
41.7202
 20
41.7174
 30
0.0
 11
55.7195
 21
41.7174
 31
0.0
  0
LINE
  8
0
 62
     0
 10
55.7195
 20
41.7174
 30
0.0
 11
55.7195
 21
42.7179
 31
0.0
  0
LINE
  8
0
 62
     0
 10
55.7195
 20
42.7179
 30
0.0
 11
56.5203
 21
42.7179
 31
0.0
  0
LINE
  8
0
 62
     0
 10
56.5203
 20
42.7179
 30
0.0
 11
56.5203
 21
45.817
 31
0.0
  0
LINE
  8
0
 62
     0
 10
56.5203
 20
45.817
 30
0.0
 11
55.7195
 21
45.817
 31
0.0
  0
LINE
  8
0
 62
     0
 10
55.7195
 20
45.817
 30
0.0
 11
55.7195
 21
51.617
 31
0.0
  0
LINE
  8
0
 62
     0
 10
55.7195
 20
51.617
 30
0.0
 11
56.5203
 21
51.617
 31
0.0
  0
LINE
  8
0
 62
     0
 10
56.5203
 20
51.617
 30
0.0
 11
56.5203
 21
54.7176
 31
0.0
  0
LINE
  8
0
 62
     0
 10
56.5203
 20
54.7176
 30
0.0
 11
55.7195
 21
54.7176
 31
0.0
  0
LINE
  8
0
 62
     0
 10
55.7195
 20
54.7176
 30
0.0
 11
55.7195
 21
55.717
 31
0.0
  0
LINE
  8
0
 62
     0
 10
55.7195
 20
55.717
 30
0.0
 11
41.7202
 21
55.717
 31
0.0
  0
LINE
  8
0
 62
     0
 10
67.2705
 20
74.3423
 30
0.0
 11
67.2705
 21
73.5171
 31
0.0
  0
LINE
  8
0
 62
     0
 10
67.2705
 20
73.5171
 30
0.0
 11
61.0002
 21
73.5171
 31
0.0
  0
LINE
  8
0
 62
     0
 10
61.0002
 20
73.5171
 30
0.0
 11
61.0002
 21
71.7917
 31
0.0
  0
LINE
  8
0
 62
     0
 10
61.0002
 20
71.7917
 30
0.0
 11
60.0191
 21
71.7917
 31
0.0
  0
LINE
  8
0
 62
     0
 10
60.0191
 20
71.7917
 30
0.0
 11
60.0191
 21
68.4925
 31
0.0
  0
LINE
  8
0
 62
     0
 10
60.0191
 20
68.4925
 30
0.0
 11
61.0002
 21
68.4925
 31
0.0
  0
LINE
  8
0
 62
     0
 10
61.0002
 20
68.4925
 30
0.0
 11
61.0002
 21
66.7674
 31
0.0
  0
LINE
  8
0
 62
     0
 10
61.0002
 20
66.7674
 30
0.0
 11
65.4692
 21
66.7674
 31
0.0
  0
LINE
  8
0
 62
     0
 10
65.4692
 20
66.7674
 30
0.0
 11
65.4692
 21
65.242
 31
0.0
  0
LINE
  8
0
 62
     0
 10
65.4692
 20
65.242
 30
0.0
 11
64.8684
 21
65.242
 31
0.0
  0
LINE
  8
0
 62
     0
 10
64.8684
 20
65.242
 30
0.0
 11
64.8684
 21
66.0425
 31
0.0
  0
LINE
  8
0
 62
     0
 10
64.8684
 20
66.0425
 30
0.0
 11
61.7693
 21
66.0425
 31
0.0
  0
LINE
  8
0
 62
     0
 10
61.7693
 20
66.0425
 30
0.0
 11
61.7693
 21
65.242
 31
0.0
  0
LINE
  8
0
 62
     0
 10
61.7693
 20
65.242
 30
0.0
 11
60.7702
 21
65.242
 31
0.0
  0
LINE
  8
0
 62
     0
 10
60.7702
 20
65.242
 30
0.0
 11
60.7702
 21
51.2424
 31
0.0
  0
LINE
  8
0
 62
     0
 10
60.7702
 20
51.2424
 30
0.0
 11
61.7693
 21
51.2424
 31
0.0
  0
LINE
  8
0
 62
     0
 10
61.7693
 20
51.2424
 30
0.0
 11
61.7693
 21
50.4416
 31
0.0
  0
LINE
  8
0
 62
     0
 10
61.7693
 20
50.4416
 30
0.0
 11
64.8684
 21
50.4416
 31
0.0
  0
LINE
  8
0
 62
     0
 10
64.8684
 20
50.4416
 30
0.0
 11
64.8684
 21
51.2424
 31
0.0
  0
LINE
  8
0
 62
     0
 10
64.8684
 20
51.2424
 30
0.0
 11
65.4692
 21
51.2424
 31
0.0
  0
LINE
  8
0
 62
     0
 10
65.4692
 20
51.2424
 30
0.0
 11
65.4692
 21
49.717
 31
0.0
  0
LINE
  8
0
 62
     0
 10
65.4692
 20
49.717
 30
0.0
 11
61.0002
 21
49.717
 31
0.0
  0
LINE
  8
0
 62
     0
 10
61.0002
 20
49.717
 30
0.0
 11
61.0002
 21
47.9915
 31
0.0
  0
LINE
  8
0
 62
     0
 10
61.0002
 20
47.9915
 30
0.0
 11
60.0191
 21
47.9915
 31
0.0
  0
LINE
  8
0
 62
     0
 10
60.0191
 20
47.9915
 30
0.0
 11
60.0191
 21
44.6927
 31
0.0
  0
LINE
  8
0
 62
     0
 10
60.0191
 20
44.6927
 30
0.0
 11
61.0002
 21
44.6927
 31
0.0
  0
LINE
  8
0
 62
     0
 10
61.0002
 20
44.6927
 30
0.0
 11
61.0002
 21
42.9673
 31
0.0
  0
LINE
  8
0
 62
     0
 10
61.0002
 20
42.9673
 30
0.0
 11
67.2705
 21
42.9673
 31
0.0
  0
LINE
  8
0
 62
     0
 10
67.2705
 20
42.9673
 30
0.0
 11
67.2705
 21
42.1418
 31
0.0
  0
LINE
  8
0
 62
     0
 10
67.2705
 20
42.1418
 30
0.0
 11
70.0691
 21
42.1418
 31
0.0
  0
LINE
  8
0
 62
     0
 10
70.0691
 20
42.1418
 30
0.0
 11
70.0691
 21
42.9673
 31
0.0
  0
LINE
  8
0
 62
     0
 10
70.0691
 20
42.9673
 30
0.0
 11
73.2991
 21
42.9673
 31
0.0
  0
LINE
  8
0
 62
     0
 10
73.2991
 20
42.9673
 30
0.0
 11
73.2991
 21
44.6927
 31
0.0
  0
LINE
  8
0
 62
     0
 10
73.2991
 20
44.6927
 30
0.0
 11
74.2199
 21
44.6927
 31
0.0
  0
LINE
  8
0
 62
     0
 10
74.2199
 20
44.6927
 30
0.0
 11
74.2199
 21
47.9915
 31
0.0
  0
LINE
  8
0
 62
     0
 10
74.2199
 20
47.9915
 30
0.0
 11
73.2991
 21
47.9915
 31
0.0
  0
LINE
  8
0
 62
     0
 10
73.2991
 20
47.9915
 30
0.0
 11
73.2991
 21
49.717
 31
0.0
  0
LINE
  8
0
 62
     0
 10
73.2991
 20
49.717
 30
0.0
 11
70.0691
 21
49.717
 31
0.0
  0
LINE
  8
0
 62
     0
 10
70.0691
 20
49.717
 30
0.0
 11
70.0691
 21
51.2424
 31
0.0
  0
LINE
  8
0
 62
     0
 10
70.0691
 20
51.2424
 30
0.0
 11
70.6699
 21
51.2424
 31
0.0
  0
LINE
  8
0
 62
     0
 10
70.6699
 20
51.2424
 30
0.0
 11
70.6699
 21
50.4416
 31
0.0
  0
LINE
  8
0
 62
     0
 10
70.6699
 20
50.4416
 30
0.0
 11
73.769
 21
50.4416
 31
0.0
  0
LINE
  8
0
 62
     0
 10
73.769
 20
50.4416
 30
0.0
 11
73.769
 21
51.2424
 31
0.0
  0
LINE
  8
0
 62
     0
 10
73.769
 20
51.2424
 30
0.0
 11
74.7695
 21
51.2424
 31
0.0
  0
LINE
  8
0
 62
     0
 10
74.7695
 20
51.2424
 30
0.0
 11
74.7695
 21
65.242
 31
0.0
  0
LINE
  8
0
 62
     0
 10
74.7695
 20
65.242
 30
0.0
 11
73.769
 21
65.242
 31
0.0
  0
LINE
  8
0
 62
     0
 10
73.769
 20
65.242
 30
0.0
 11
73.769
 21
66.0425
 31
0.0
  0
LINE
  8
0
 62
     0
 10
73.769
 20
66.0425
 30
0.0
 11
70.6699
 21
66.0425
 31
0.0
  0
LINE
  8
0
 62
     0
 10
70.6699
 20
66.0425
 30
0.0
 11
70.6699
 21
65.242
 31
0.0
  0
LINE
  8
0
 62
     0
 10
70.6699
 20
65.242
 30
0.0
 11
70.0691
 21
65.242
 31
0.0
  0
LINE
  8
0
 62
     0
 10
70.0691
 20
65.242
 30
0.0
 11
70.0691
 21
66.7674
 31
0.0
  0
LINE
  8
0
 62
     0
 10
70.0691
 20
66.7674
 30
0.0
 11
73.2991
 21
66.7674
 31
0.0
  0
LINE
  8
0
 62
     0
 10
73.2991
 20
66.7674
 30
0.0
 11
73.2991
 21
68.4925
 31
0.0
  0
LINE
  8
0
 62
     0
 10
73.2991
 20
68.4925
 30
0.0
 11
74.2199
 21
68.4925
 31
0.0
  0
LINE
  8
0
 62
     0
 10
74.2199
 20
68.4925
 30
0.0
 11
74.2199
 21
71.7917
 31
0.0
  0
LINE
  8
0
 62
     0
 10
74.2199
 20
71.7917
 30
0.0
 11
73.2991
 21
71.7917
 31
0.0
  0
LINE
  8
0
 62
     0
 10
73.2991
 20
71.7917
 30
0.0
 11
73.2991
 21
73.5171
 31
0.0
  0
LINE
  8
0
 62
     0
 10
73.2991
 20
73.5171
 30
0.0
 11
70.0691
 21
73.5171
 31
0.0
  0
LINE
  8
0
 62
     0
 10
70.0691
 20
73.5171
 30
0.0
 11
70.0691
 21
74.3423
 31
0.0
  0
LINE
  8
0
 62
     0
 10
70.0691
 20
74.3423
 30
0.0
 11
67.2705
 21
74.3423
 31
0.0
  0
LINE
  8
0
 62
     0
 10
3.6201
 20
74.767
 30
0.0
 11
3.6201
 21
73.7676
 31
0.0
  0
LINE
  8
0
 62
     0
 10
3.6201
 20
73.7676
 30
0.0
 11
2.81947
 21
73.7676
 31
0.0
  0
LINE
  8
0
 62
     0
 10
2.81947
 20
73.7676
 30
0.0
 11
2.81947
 21
70.667
 31
0.0
  0
LINE
  8
0
 62
     0
 10
2.81947
 20
70.667
 30
0.0
 11
3.6201
 21
70.667
 31
0.0
  0
LINE
  8
0
 62
     0
 10
3.6201
 20
70.667
 30
0.0
 11
3.6201
 21
64.867
 31
0.0
  0
LINE
  8
0
 62
     0
 10
3.6201
 20
64.867
 30
0.0
 11
2.81947
 21
64.867
 31
0.0
  0
LINE
  8
0
 62
     0
 10
2.81947
 20
64.867
 30
0.0
 11
2.81947
 21
61.7679
 31
0.0
  0
LINE
  8
0
 62
     0
 10
2.81947
 20
61.7679
 30
0.0
 11
3.6201
 21
61.7679
 31
0.0
  0
LINE
  8
0
 62
     0
 10
3.6201
 20
61.7679
 30
0.0
 11
3.6201
 21
60.7674
 31
0.0
  0
LINE
  8
0
 62
     0
 10
3.6201
 20
60.7674
 30
0.0
 11
17.6196
 21
60.7674
 31
0.0
  0
LINE
  8
0
 62
     0
 10
17.6196
 20
60.7674
 30
0.0
 11
17.6196
 21
61.7679
 31
0.0
  0
LINE
  8
0
 62
     0
 10
17.6196
 20
61.7679
 30
0.0
 11
18.4202
 21
61.7679
 31
0.0
  0
LINE
  8
0
 62
     0
 10
18.4202
 20
61.7679
 30
0.0
 11
18.4202
 21
64.867
 31
0.0
  0
LINE
  8
0
 62
     0
 10
18.4202
 20
64.867
 30
0.0
 11
17.6196
 21
64.867
 31
0.0
  0
LINE
  8
0
 62
     0
 10
17.6196
 20
64.867
 30
0.0
 11
17.6196
 21
70.667
 31
0.0
  0
LINE
  8
0
 62
     0
 10
17.6196
 20
70.667
 30
0.0
 11
18.4202
 21
70.667
 31
0.0
  0
LINE
  8
0
 62
     0
 10
18.4202
 20
70.667
 30
0.0
 11
18.4202
 21
73.7676
 31
0.0
  0
LINE
  8
0
 62
     0
 10
18.4202
 20
73.7676
 30
0.0
 11
17.6196
 21
73.7676
 31
0.0
  0
LINE
  8
0
 62
     0
 10
17.6196
 20
73.7676
 30
0.0
 11
17.6196
 21
74.767
 31
0.0
  0
LINE
  8
0
 62
     0
 10
17.6196
 20
74.767
 30
0.0
 11
3.6201
 21
74.767
 31
0.0
  0
LINE
  8
0
 62
     0
 10
22.6701
 20
74.767
 30
0.0
 11
22.6701
 21
73.7676
 31
0.0
  0
LINE
  8
0
 62
     0
 10
22.6701
 20
73.7676
 30
0.0
 11
21.8695
 21
73.7676
 31
0.0
  0
LINE
  8
0
 62
     0
 10
21.8695
 20
73.7676
 30
0.0
 11
21.8695
 21
70.667
 31
0.0
  0
LINE
  8
0
 62
     0
 10
21.8695
 20
70.667
 30
0.0
 11
22.6701
 21
70.667
 31
0.0
  0
LINE
  8
0
 62
     0
 10
22.6701
 20
70.667
 30
0.0
 11
22.6701
 21
64.867
 31
0.0
  0
LINE
  8
0
 62
     0
 10
22.6701
 20
64.867
 30
0.0
 11
21.8695
 21
64.867
 31
0.0
  0
LINE
  8
0
 62
     0
 10
21.8695
 20
64.867
 30
0.0
 11
21.8695
 21
61.7679
 31
0.0
  0
LINE
  8
0
 62
     0
 10
21.8695
 20
61.7679
 30
0.0
 11
22.6701
 21
61.7679
 31
0.0
  0
LINE
  8
0
 62
     0
 10
22.6701
 20
61.7679
 30
0.0
 11
22.6701
 21
60.7674
 31
0.0
  0
LINE
  8
0
 62
     0
 10
22.6701
 20
60.7674
 30
0.0
 11
36.6695
 21
60.7674
 31
0.0
  0
LINE
  8
0
 62
     0
 10
36.6695
 20
60.7674
 30
0.0
 11
36.6695
 21
61.7679
 31
0.0
  0
LINE
  8
0
 62
     0
 10
36.6695
 20
61.7679
 30
0.0
 11
37.4703
 21
61.7679
 31
0.0
  0
LINE
  8
0
 62
     0
 10
37.4703
 20
61.7679
 30
0.0
 11
37.4703
 21
64.867
 31
0.0
  0
LINE
  8
0
 62
     0
 10
37.4703
 20
64.867
 30
0.0
 11
36.6695
 21
64.867
 31
0.0
  0
LINE
  8
0
 62
     0
 10
36.6695
 20
64.867
 30
0.0
 11
36.6695
 21
70.667
 31
0.0
  0
LINE
  8
0
 62
     0
 10
36.6695
 20
70.667
 30
0.0
 11
37.4703
 21
70.667
 31
0.0
  0
LINE
  8
0
 62
     0
 10
37.4703
 20
70.667
 30
0.0
 11
37.4703
 21
73.7676
 31
0.0
  0
LINE
  8
0
 62
     0
 10
37.4703
 20
73.7676
 30
0.0
 11
36.6695
 21
73.7676
 31
0.0
  0
LINE
  8
0
 62
     0
 10
36.6695
 20
73.7676
 30
0.0
 11
36.6695
 21
74.767
 31
0.0
  0
LINE
  8
0
 62
     0
 10
36.6695
 20
74.767
 30
0.0
 11
22.6701
 21
74.767
 31
0.0
  0
LINE
  8
0
 62
     0
 10
41.7202
 20
74.767
 30
0.0
 11
41.7202
 21
73.7676
 31
0.0
  0
LINE
  8
0
 62
     0
 10
41.7202
 20
73.7676
 30
0.0
 11
40.9194
 21
73.7676
 31
0.0
  0
LINE
  8
0
 62
     0
 10
40.9194
 20
73.7676
 30
0.0
 11
40.9194
 21
70.667
 31
0.0
  0
LINE
  8
0
 62
     0
 10
40.9194
 20
70.667
 30
0.0
 11
41.7202
 21
70.667
 31
0.0
  0
LINE
  8
0
 62
     0
 10
41.7202
 20
70.667
 30
0.0
 11
41.7202
 21
64.867
 31
0.0
  0
LINE
  8
0
 62
     0
 10
41.7202
 20
64.867
 30
0.0
 11
40.9194
 21
64.867
 31
0.0
  0
LINE
  8
0
 62
     0
 10
40.9194
 20
64.867
 30
0.0
 11
40.9194
 21
61.7679
 31
0.0
  0
LINE
  8
0
 62
     0
 10
40.9194
 20
61.7679
 30
0.0
 11
41.7202
 21
61.7679
 31
0.0
  0
LINE
  8
0
 62
     0
 10
41.7202
 20
61.7679
 30
0.0
 11
41.7202
 21
60.7674
 31
0.0
  0
LINE
  8
0
 62
     0
 10
41.7202
 20
60.7674
 30
0.0
 11
55.7195
 21
60.7674
 31
0.0
  0
LINE
  8
0
 62
     0
 10
55.7195
 20
60.7674
 30
0.0
 11
55.7195
 21
61.7679
 31
0.0
  0
LINE
  8
0
 62
     0
 10
55.7195
 20
61.7679
 30
0.0
 11
56.5203
 21
61.7679
 31
0.0
  0
LINE
  8
0
 62
     0
 10
56.5203
 20
61.7679
 30
0.0
 11
56.5203
 21
64.867
 31
0.0
  0
LINE
  8
0
 62
     0
 10
56.5203
 20
64.867
 30
0.0
 11
55.7195
 21
64.867
 31
0.0
  0
LINE
  8
0
 62
     0
 10
55.7195
 20
64.867
 30
0.0
 11
55.7195
 21
70.667
 31
0.0
  0
LINE
  8
0
 62
     0
 10
55.7195
 20
70.667
 30
0.0
 11
56.5203
 21
70.667
 31
0.0
  0
LINE
  8
0
 62
     0
 10
56.5203
 20
70.667
 30
0.0
 11
56.5203
 21
73.7676
 31
0.0
  0
LINE
  8
0
 62
     0
 10
56.5203
 20
73.7676
 30
0.0
 11
55.7195
 21
73.7676
 31
0.0
  0
LINE
  8
0
 62
     0
 10
55.7195
 20
73.7676
 30
0.0
 11
55.7195
 21
74.767
 31
0.0
  0
LINE
  8
0
 62
     0
 10
55.7195
 20
74.767
 30
0.0
 11
41.7202
 21
74.767
 31
0.0
  0
LINE
  8
0
 62
     0
 10
3.6201
 20
93.817
 30
0.0
 11
3.6201
 21
92.8176
 31
0.0
  0
LINE
  8
0
 62
     0
 10
3.6201
 20
92.8176
 30
0.0
 11
2.81947
 21
92.8176
 31
0.0
  0
LINE
  8
0
 62
     0
 10
2.81947
 20
92.8176
 30
0.0
 11
2.81947
 21
89.717
 31
0.0
  0
LINE
  8
0
 62
     0
 10
2.81947
 20
89.717
 30
0.0
 11
3.6201
 21
89.717
 31
0.0
  0
LINE
  8
0
 62
     0
 10
3.6201
 20
89.717
 30
0.0
 11
3.6201
 21
83.917
 31
0.0
  0
LINE
  8
0
 62
     0
 10
3.6201
 20
83.917
 30
0.0
 11
2.81947
 21
83.917
 31
0.0
  0
LINE
  8
0
 62
     0
 10
2.81947
 20
83.917
 30
0.0
 11
2.81947
 21
80.8179
 31
0.0
  0
LINE
  8
0
 62
     0
 10
2.81947
 20
80.8179
 30
0.0
 11
3.6201
 21
80.8179
 31
0.0
  0
LINE
  8
0
 62
     0
 10
3.6201
 20
80.8179
 30
0.0
 11
3.6201
 21
79.8174
 31
0.0
  0
LINE
  8
0
 62
     0
 10
3.6201
 20
79.8174
 30
0.0
 11
17.6196
 21
79.8174
 31
0.0
  0
LINE
  8
0
 62
     0
 10
17.6196
 20
79.8174
 30
0.0
 11
17.6196
 21
80.8179
 31
0.0
  0
LINE
  8
0
 62
     0
 10
17.6196
 20
80.8179
 30
0.0
 11
18.4202
 21
80.8179
 31
0.0
  0
LINE
  8
0
 62
     0
 10
18.4202
 20
80.8179
 30
0.0
 11
18.4202
 21
83.917
 31
0.0
  0
LINE
  8
0
 62
     0
 10
18.4202
 20
83.917
 30
0.0
 11
17.6196
 21
83.917
 31
0.0
  0
LINE
  8
0
 62
     0
 10
17.6196
 20
83.917
 30
0.0
 11
17.6196
 21
89.717
 31
0.0
  0
LINE
  8
0
 62
     0
 10
17.6196
 20
89.717
 30
0.0
 11
18.4202
 21
89.717
 31
0.0
  0
LINE
  8
0
 62
     0
 10
18.4202
 20
89.717
 30
0.0
 11
18.4202
 21
92.8176
 31
0.0
  0
LINE
  8
0
 62
     0
 10
18.4202
 20
92.8176
 30
0.0
 11
17.6196
 21
92.8176
 31
0.0
  0
LINE
  8
0
 62
     0
 10
17.6196
 20
92.8176
 30
0.0
 11
17.6196
 21
93.817
 31
0.0
  0
LINE
  8
0
 62
     0
 10
17.6196
 20
93.817
 30
0.0
 11
3.6201
 21
93.817
 31
0.0
  0
LINE
  8
0
 62
     0
 10
22.6701
 20
93.817
 30
0.0
 11
22.6701
 21
92.8176
 31
0.0
  0
LINE
  8
0
 62
     0
 10
22.6701
 20
92.8176
 30
0.0
 11
21.8695
 21
92.8176
 31
0.0
  0
LINE
  8
0
 62
     0
 10
21.8695
 20
92.8176
 30
0.0
 11
21.8695
 21
89.717
 31
0.0
  0
LINE
  8
0
 62
     0
 10
21.8695
 20
89.717
 30
0.0
 11
22.6701
 21
89.717
 31
0.0
  0
LINE
  8
0
 62
     0
 10
22.6701
 20
89.717
 30
0.0
 11
22.6701
 21
83.917
 31
0.0
  0
LINE
  8
0
 62
     0
 10
22.6701
 20
83.917
 30
0.0
 11
21.8695
 21
83.917
 31
0.0
  0
LINE
  8
0
 62
     0
 10
21.8695
 20
83.917
 30
0.0
 11
21.8695
 21
80.8179
 31
0.0
  0
LINE
  8
0
 62
     0
 10
21.8695
 20
80.8179
 30
0.0
 11
22.6701
 21
80.8179
 31
0.0
  0
LINE
  8
0
 62
     0
 10
22.6701
 20
80.8179
 30
0.0
 11
22.6701
 21
79.8174
 31
0.0
  0
LINE
  8
0
 62
     0
 10
22.6701
 20
79.8174
 30
0.0
 11
36.6695
 21
79.8174
 31
0.0
  0
LINE
  8
0
 62
     0
 10
36.6695
 20
79.8174
 30
0.0
 11
36.6695
 21
80.8179
 31
0.0
  0
LINE
  8
0
 62
     0
 10
36.6695
 20
80.8179
 30
0.0
 11
37.4703
 21
80.8179
 31
0.0
  0
LINE
  8
0
 62
     0
 10
37.4703
 20
80.8179
 30
0.0
 11
37.4703
 21
83.917
 31
0.0
  0
LINE
  8
0
 62
     0
 10
37.4703
 20
83.917
 30
0.0
 11
36.6695
 21
83.917
 31
0.0
  0
LINE
  8
0
 62
     0
 10
36.6695
 20
83.917
 30
0.0
 11
36.6695
 21
89.717
 31
0.0
  0
LINE
  8
0
 62
     0
 10
36.6695
 20
89.717
 30
0.0
 11
37.4703
 21
89.717
 31
0.0
  0
LINE
  8
0
 62
     0
 10
37.4703
 20
89.717
 30
0.0
 11
37.4703
 21
92.8176
 31
0.0
  0
LINE
  8
0
 62
     0
 10
37.4703
 20
92.8176
 30
0.0
 11
36.6695
 21
92.8176
 31
0.0
  0
LINE
  8
0
 62
     0
 10
36.6695
 20
92.8176
 30
0.0
 11
36.6695
 21
93.817
 31
0.0
  0
LINE
  8
0
 62
     0
 10
36.6695
 20
93.817
 30
0.0
 11
22.6701
 21
93.817
 31
0.0
  0
LINE
  8
0
 62
     0
 10
41.7202
 20
93.817
 30
0.0
 11
41.7202
 21
92.8176
 31
0.0
  0
LINE
  8
0
 62
     0
 10
41.7202
 20
92.8176
 30
0.0
 11
40.9194
 21
92.8176
 31
0.0
  0
LINE
  8
0
 62
     0
 10
40.9194
 20
92.8176
 30
0.0
 11
40.9194
 21
89.717
 31
0.0
  0
LINE
  8
0
 62
     0
 10
40.9194
 20
89.717
 30
0.0
 11
41.7202
 21
89.717
 31
0.0
  0
LINE
  8
0
 62
     0
 10
41.7202
 20
89.717
 30
0.0
 11
41.7202
 21
83.917
 31
0.0
  0
LINE
  8
0
 62
     0
 10
41.7202
 20
83.917
 30
0.0
 11
40.9194
 21
83.917
 31
0.0
  0
LINE
  8
0
 62
     0
 10
40.9194
 20
83.917
 30
0.0
 11
40.9194
 21
80.8179
 31
0.0
  0
LINE
  8
0
 62
     0
 10
40.9194
 20
80.8179
 30
0.0
 11
41.7202
 21
80.8179
 31
0.0
  0
LINE
  8
0
 62
     0
 10
41.7202
 20
80.8179
 30
0.0
 11
41.7202
 21
79.8174
 31
0.0
  0
LINE
  8
0
 62
     0
 10
41.7202
 20
79.8174
 30
0.0
 11
55.7195
 21
79.8174
 31
0.0
  0
LINE
  8
0
 62
     0
 10
55.7195
 20
79.8174
 30
0.0
 11
55.7195
 21
80.8179
 31
0.0
  0
LINE
  8
0
 62
     0
 10
55.7195
 20
80.8179
 30
0.0
 11
56.5203
 21
80.8179
 31
0.0
  0
LINE
  8
0
 62
     0
 10
56.5203
 20
80.8179
 30
0.0
 11
56.5203
 21
83.917
 31
0.0
  0
LINE
  8
0
 62
     0
 10
56.5203
 20
83.917
 30
0.0
 11
55.7195
 21
83.917
 31
0.0
  0
LINE
  8
0
 62
     0
 10
55.7195
 20
83.917
 30
0.0
 11
55.7195
 21
89.717
 31
0.0
  0
LINE
  8
0
 62
     0
 10
55.7195
 20
89.717
 30
0.0
 11
56.5203
 21
89.717
 31
0.0
  0
LINE
  8
0
 62
     0
 10
56.5203
 20
89.717
 30
0.0
 11
56.5203
 21
92.8176
 31
0.0
  0
LINE
  8
0
 62
     0
 10
56.5203
 20
92.8176
 30
0.0
 11
55.7195
 21
92.8176
 31
0.0
  0
LINE
  8
0
 62
     0
 10
55.7195
 20
92.8176
 30
0.0
 11
55.7195
 21
93.817
 31
0.0
  0
LINE
  8
0
 62
     0
 10
55.7195
 20
93.817
 30
0.0
 11
41.7202
 21
93.817
 31
0.0
  0
LINE
  8
0
 62
     0
 10
60.7702
 20
93.817
 30
0.0
 11
60.7702
 21
92.8176
 31
0.0
  0
LINE
  8
0
 62
     0
 10
60.7702
 20
92.8176
 30
0.0
 11
59.9694
 21
92.8176
 31
0.0
  0
LINE
  8
0
 62
     0
 10
59.9694
 20
92.8176
 30
0.0
 11
59.9694
 21
89.717
 31
0.0
  0
LINE
  8
0
 62
     0
 10
59.9694
 20
89.717
 30
0.0
 11
60.7702
 21
89.717
 31
0.0
  0
LINE
  8
0
 62
     0
 10
60.7702
 20
89.717
 30
0.0
 11
60.7702
 21
83.917
 31
0.0
  0
LINE
  8
0
 62
     0
 10
60.7702
 20
83.917
 30
0.0
 11
59.9694
 21
83.917
 31
0.0
  0
LINE
  8
0
 62
     0
 10
59.9694
 20
83.917
 30
0.0
 11
59.9694
 21
80.8179
 31
0.0
  0
LINE
  8
0
 62
     0
 10
59.9694
 20
80.8179
 30
0.0
 11
60.7702
 21
80.8179
 31
0.0
  0
LINE
  8
0
 62
     0
 10
60.7702
 20
80.8179
 30
0.0
 11
60.7702
 21
79.8174
 31
0.0
  0
LINE
  8
0
 62
     0
 10
60.7702
 20
79.8174
 30
0.0
 11
74.7695
 21
79.8174
 31
0.0
  0
LINE
  8
0
 62
     0
 10
74.7695
 20
79.8174
 30
0.0
 11
74.7695
 21
80.8179
 31
0.0
  0
LINE
  8
0
 62
     0
 10
74.7695
 20
80.8179
 30
0.0
 11
75.5703
 21
80.8179
 31
0.0
  0
LINE
  8
0
 62
     0
 10
75.5703
 20
80.8179
 30
0.0
 11
75.5703
 21
83.917
 31
0.0
  0
LINE
  8
0
 62
     0
 10
75.5703
 20
83.917
 30
0.0
 11
74.7695
 21
83.917
 31
0.0
  0
LINE
  8
0
 62
     0
 10
74.7695
 20
83.917
 30
0.0
 11
74.7695
 21
89.717
 31
0.0
  0
LINE
  8
0
 62
     0
 10
74.7695
 20
89.717
 30
0.0
 11
75.5703
 21
89.717
 31
0.0
  0
LINE
  8
0
 62
     0
 10
75.5703
 20
89.717
 30
0.0
 11
75.5703
 21
92.8176
 31
0.0
  0
LINE
  8
0
 62
     0
 10
75.5703
 20
92.8176
 30
0.0
 11
74.7695
 21
92.8176
 31
0.0
  0
LINE
  8
0
 62
     0
 10
74.7695
 20
92.8176
 30
0.0
 11
74.7695
 21
93.817
 31
0.0
  0
LINE
  8
0
 62
     0
 10
74.7695
 20
93.817
 30
0.0
 11
60.7702
 21
93.817
 31
0.0
  0
ENDSEC
  0
EOF
