  0
SECTION
  2
HEADER
  9
$ACADVER
  1
AC1009
  9
$EXTMIN
 10
0.0
 20
0.0
 30
0.0
  9
$EXTMAX
 10
1000.0
 20
1000.0
 30
0.0
  9
$FILLMODE
 70
 0
  9
$SPLFRAME
 70
 1
  0
ENDSEC
  0
SECTION
  2
TABLES
  0
TABLE
  2
LAYER
 70
1
  0
LAYER
  2
0
 70
     0
 62
     7
  6
CONTINUOUS
  0
ENDTAB
  0
ENDSEC
  0
SECTION
  2
ENTITIES
  0
LINE
  8
0
 62
     0
 10
76.2953
 20
97.342
 30
0.0
 11
76.4522
 21
97.3363
 31
0.0
  0
LINE
  8
0
 62
     0
 10
76.4522
 20
97.3363
 30
0.0
 11
76.6078
 21
97.3183
 31
0.0
  0
LINE
  8
0
 62
     0
 10
76.6078
 20
97.3183
 30
0.0
 11
76.7623
 21
97.2866
 31
0.0
  0
LINE
  8
0
 62
     0
 10
76.7623
 20
97.2866
 30
0.0
 11
76.9137
 21
97.2453
 31
0.0
  0
LINE
  8
0
 62
     0
 10
76.9137
 20
97.2453
 30
0.0
 11
77.0611
 21
97.1903
 31
0.0
  0
LINE
  8
0
 62
     0
 10
77.0611
 20
97.1903
 30
0.0
 11
77.2033
 21
97.1254
 31
0.0
  0
LINE
  8
0
 62
     0
 10
77.2033
 20
97.1254
 30
0.0
 11
77.3395
 21
97.0485
 31
0.0
  0
LINE
  8
0
 62
     0
 10
77.3395
 20
97.0485
 30
0.0
 11
77.4707
 21
96.9617
 31
0.0
  0
LINE
  8
0
 62
     0
 10
77.4707
 20
96.9617
 30
0.0
 11
77.5931
 21
96.8636
 31
0.0
  0
LINE
  8
0
 62
     0
 10
77.5931
 20
96.8636
 30
0.0
 11
77.7102
 21
96.7574
 31
0.0
  0
LINE
  8
0
 62
     0
 10
77.7102
 20
96.7574
 30
0.0
 11
77.815
 21
96.6417
 31
0.0
  0
LINE
  8
0
 62
     0
 10
77.815
 20
96.6417
 30
0.0
 11
77.9141
 21
96.5193
 31
0.0
  0
LINE
  8
0
 62
     0
 10
77.9141
 20
96.5193
 30
0.0
 11
78.0009
 21
96.387
 31
0.0
  0
LINE
  8
0
 62
     0
 10
78.0009
 20
96.387
 30
0.0
 11
78.0782
 21
96.2505
 31
0.0
  0
LINE
  8
0
 62
     0
 10
78.0782
 20
96.2505
 30
0.0
 11
78.1431
 21
96.1087
 31
0.0
  0
LINE
  8
0
 62
     0
 10
78.1431
 20
96.1087
 30
0.0
 11
78.1981
 21
95.9612
 31
0.0
  0
LINE
  8
0
 62
     0
 10
78.1981
 20
95.9612
 30
0.0
 11
78.2394
 21
95.8095
 31
0.0
  0
LINE
  8
0
 62
     0
 10
78.2394
 20
95.8095
 30
0.0
 11
78.2712
 21
95.655
 31
0.0
  0
LINE
  8
0
 62
     0
 10
78.2712
 20
95.655
 30
0.0
 11
78.2891
 21
95.4994
 31
0.0
  0
LINE
  8
0
 62
     0
 10
78.2891
 20
95.4994
 30
0.0
 11
78.2948
 21
95.3424
 31
0.0
  0
LINE
  8
0
 62
     0
 10
78.2948
 20
95.3424
 30
0.0
 11
78.2959
 21
2.09186
 31
0.0
  0
LINE
  8
0
 62
     0
 10
78.2959
 20
2.09186
 30
0.0
 11
78.2891
 21
1.93477
 31
0.0
  0
LINE
  8
0
 62
     0
 10
78.2891
 20
1.93477
 30
0.0
 11
78.2712
 21
1.77905
 31
0.0
  0
LINE
  8
0
 62
     0
 10
78.2712
 20
1.77905
 30
0.0
 11
78.2394
 21
1.62471
 31
0.0
  0
LINE
  8
0
 62
     0
 10
78.2394
 20
1.62471
 30
0.0
 11
78.1981
 21
1.4745
 31
0.0
  0
LINE
  8
0
 62
     0
 10
78.1981
 20
1.4745
 30
0.0
 11
78.1431
 21
1.32567
 31
0.0
  0
LINE
  8
0
 62
     0
 10
78.1431
 20
1.32567
 30
0.0
 11
78.0782
 21
1.18374
 31
0.0
  0
LINE
  8
0
 62
     0
 10
78.0782
 20
1.18374
 30
0.0
 11
78.0009
 21
1.04869
 31
0.0
  0
LINE
  8
0
 62
     0
 10
78.0009
 20
1.04869
 30
0.0
 11
77.9141
 21
0.916397
 31
0.0
  0
LINE
  8
0
 62
     0
 10
77.9141
 20
0.916397
 30
0.0
 11
77.815
 21
0.79375
 31
0.0
  0
LINE
  8
0
 62
     0
 10
77.815
 20
0.79375
 30
0.0
 11
77.7102
 21
0.676617
 31
0.0
  0
LINE
  8
0
 62
     0
 10
77.7102
 20
0.676617
 30
0.0
 11
77.5931
 21
0.571885
 31
0.0
  0
LINE
  8
0
 62
     0
 10
77.5931
 20
0.571885
 30
0.0
 11
77.4707
 21
0.472666
 31
0.0
  0
LINE
  8
0
 62
     0
 10
77.4707
 20
0.472666
 30
0.0
 11
77.3395
 21
0.38723
 31
0.0
  0
LINE
  8
0
 62
     0
 10
77.3395
 20
0.38723
 30
0.0
 11
77.2033
 21
0.308681
 31
0.0
  0
LINE
  8
0
 62
     0
 10
77.2033
 20
0.308681
 30
0.0
 11
77.0611
 21
0.243913
 31
0.0
  0
LINE
  8
0
 62
     0
 10
77.0611
 20
0.243913
 30
0.0
 11
76.9137
 21
0.188791
 31
0.0
  0
LINE
  8
0
 62
     0
 10
76.9137
 20
0.188791
 30
0.0
 11
76.7623
 21
0.14745
 31
0.0
  0
LINE
  8
0
 62
     0
 10
76.7623
 20
0.14745
 30
0.0
 11
76.6078
 21
0.115755
 31
0.0
  0
LINE
  8
0
 62
     0
 10
76.6078
 20
0.115755
 30
0.0
 11
76.4522
 21
0.0978408
 31
0.0
  0
LINE
  8
0
 62
     0
 10
76.4522
 20
0.0978408
 30
0.0
 11
76.2953
 21
0.0923286
 31
0.0
  0
LINE
  8
0
 62
     0
 10
76.2953
 20
0.0923286
 30
0.0
 11
2.09462
 21
0.0909507
 31
0.0
  0
LINE
  8
0
 62
     0
 10
2.09462
 20
0.0909507
 30
0.0
 11
1.93752
 21
0.0978408
 31
0.0
  0
LINE
  8
0
 62
     0
 10
1.93752
 20
0.0978408
 30
0.0
 11
1.7818
 21
0.115755
 31
0.0
  0
LINE
  8
0
 62
     0
 10
1.7818
 20
0.115755
 30
0.0
 11
1.62746
 21
0.14745
 31
0.0
  0
LINE
  8
0
 62
     0
 10
1.62746
 20
0.14745
 30
0.0
 11
1.47588
 21
0.188791
 31
0.0
  0
LINE
  8
0
 62
     0
 10
1.47588
 20
0.188791
 30
0.0
 11
1.32843
 21
0.243913
 31
0.0
  0
LINE
  8
0
 62
     0
 10
1.32843
 20
0.243913
 30
0.0
 11
1.18649
 21
0.308681
 31
0.0
  0
LINE
  8
0
 62
     0
 10
1.18649
 20
0.308681
 30
0.0
 11
1.05006
 21
0.38723
 31
0.0
  0
LINE
  8
0
 62
     0
 10
1.05006
 20
0.38723
 30
0.0
 11
0.919152
 21
0.472666
 31
0.0
  0
LINE
  8
0
 62
     0
 10
0.919152
 20
0.472666
 30
0.0
 11
0.795129
 21
0.571885
 31
0.0
  0
LINE
  8
0
 62
     0
 10
0.795129
 20
0.571885
 30
0.0
 11
0.679372
 21
0.676617
 31
0.0
  0
LINE
  8
0
 62
     0
 10
0.679372
 20
0.676617
 30
0.0
 11
0.573264
 21
0.79375
 31
0.0
  0
LINE
  8
0
 62
     0
 10
0.573264
 20
0.79375
 30
0.0
 11
0.475424
 21
0.916397
 31
0.0
  0
LINE
  8
0
 62
     0
 10
0.475424
 20
0.916397
 30
0.0
 11
0.388606
 21
1.04869
 31
0.0
  0
LINE
  8
0
 62
     0
 10
0.388606
 20
1.04869
 30
0.0
 11
0.311437
 21
1.18374
 31
0.0
  0
LINE
  8
0
 62
     0
 10
0.311437
 20
1.18374
 30
0.0
 11
0.246669
 21
1.32567
 31
0.0
  0
LINE
  8
0
 62
     0
 10
0.246669
 20
1.32567
 30
0.0
 11
0.191547
 21
1.4745
 31
0.0
  0
LINE
  8
0
 62
     0
 10
0.191547
 20
1.4745
 30
0.0
 11
0.150206
 21
1.62471
 31
0.0
  0
LINE
  8
0
 62
     0
 10
0.150206
 20
1.62471
 30
0.0
 11
0.118511
 21
1.77905
 31
0.0
  0
LINE
  8
0
 62
     0
 10
0.118511
 20
1.77905
 30
0.0
 11
0.100597
 21
1.93477
 31
0.0
  0
LINE
  8
0
 62
     0
 10
0.100597
 20
1.93477
 30
0.0
 11
0.0937066
 21
2.09186
 31
0.0
  0
LINE
  8
0
 62
     0
 10
0.0937066
 20
2.09186
 30
0.0
 11
0.0950846
 21
95.3424
 31
0.0
  0
LINE
  8
0
 62
     0
 10
0.0950846
 20
95.3424
 30
0.0
 11
0.100597
 21
95.4994
 31
0.0
  0
LINE
  8
0
 62
     0
 10
0.100597
 20
95.4994
 30
0.0
 11
0.118511
 21
95.655
 31
0.0
  0
LINE
  8
0
 62
     0
 10
0.118511
 20
95.655
 30
0.0
 11
0.150206
 21
95.8095
 31
0.0
  0
LINE
  8
0
 62
     0
 10
0.150206
 20
95.8095
 30
0.0
 11
0.191547
 21
95.9612
 31
0.0
  0
LINE
  8
0
 62
     0
 10
0.191547
 20
95.9612
 30
0.0
 11
0.246669
 21
96.1087
 31
0.0
  0
LINE
  8
0
 62
     0
 10
0.246669
 20
96.1087
 30
0.0
 11
0.311437
 21
96.2505
 31
0.0
  0
LINE
  8
0
 62
     0
 10
0.311437
 20
96.2505
 30
0.0
 11
0.388606
 21
96.387
 31
0.0
  0
LINE
  8
0
 62
     0
 10
0.388606
 20
96.387
 30
0.0
 11
0.475424
 21
96.5193
 31
0.0
  0
LINE
  8
0
 62
     0
 10
0.475424
 20
96.5193
 30
0.0
 11
0.573264
 21
96.6417
 31
0.0
  0
LINE
  8
0
 62
     0
 10
0.573264
 20
96.6417
 30
0.0
 11
0.679372
 21
96.7574
 31
0.0
  0
LINE
  8
0
 62
     0
 10
0.679372
 20
96.7574
 30
0.0
 11
0.795129
 21
96.8636
 31
0.0
  0
LINE
  8
0
 62
     0
 10
0.795129
 20
96.8636
 30
0.0
 11
0.919152
 21
96.9617
 31
0.0
  0
LINE
  8
0
 62
     0
 10
0.919152
 20
96.9617
 30
0.0
 11
1.05006
 21
97.0485
 31
0.0
  0
LINE
  8
0
 62
     0
 10
1.05006
 20
97.0485
 30
0.0
 11
1.18649
 21
97.1254
 31
0.0
  0
LINE
  8
0
 62
     0
 10
1.18649
 20
97.1254
 30
0.0
 11
1.32843
 21
97.1903
 31
0.0
  0
LINE
  8
0
 62
     0
 10
1.32843
 20
97.1903
 30
0.0
 11
1.47588
 21
97.2453
 31
0.0
  0
LINE
  8
0
 62
     0
 10
1.47588
 20
97.2453
 30
0.0
 11
1.62746
 21
97.2866
 31
0.0
  0
LINE
  8
0
 62
     0
 10
1.62746
 20
97.2866
 30
0.0
 11
1.7818
 21
97.3183
 31
0.0
  0
LINE
  8
0
 62
     0
 10
1.7818
 20
97.3183
 30
0.0
 11
1.93752
 21
97.3363
 31
0.0
  0
LINE
  8
0
 62
     0
 10
1.93752
 20
97.3363
 30
0.0
 11
2.09462
 21
97.3434
 31
0.0
  0
LINE
  8
0
 62
     0
 10
2.09462
 20
97.3434
 30
0.0
 11
76.2953
 21
97.342
 31
0.0
  0
ENDSEC
  0
EOF
